<svg xmlns="http://www.w3.org/2000/svg" width="1540" height="962" viewBox="0 0 2460 1540">
<rect x="0" y="0" width="2460" height="1540" fill="#ffffff" />
<rect x="60" y="680" width="250" height="145" style="fill:#e3f2fd;stroke:#1e88e5;stroke-width:1.8;rx:6;ry:6" />
<text x="70" y="700" style="font-family:sans-serif;font-size:14px;font-weight:bold;fill:#0d47a1">users</text>
<text x="70" y="720" style="font-family:sans-serif;font-size:12px;font-weight:bold;fill:#bf360c">PK user_id</text>
<text x="70" y="736" style="font-family:sans-serif;font-size:12px;fill:#263238">email (unique)</text>
<text x="70" y="752" style="font-family:sans-serif;font-size:12px;fill:#263238">password_hash</text>
<text x="70" y="768" style="font-family:sans-serif;font-size:12px;fill:#263238">status</text>
<text x="70" y="784" style="font-family:sans-serif;font-size:12px;fill:#263238">created_at</text>
<rect x="60" y="100" width="250" height="160" style="fill:#e3f2fd;stroke:#1e88e5;stroke-width:1.8;rx:6;ry:6" />
<text x="70" y="120" style="font-family:sans-serif;font-size:14px;font-weight:bold;fill:#0d47a1">lost_centers</text>
<text x="70" y="140" style="font-family:sans-serif;font-size:12px;font-weight:bold;fill:#bf360c">PK center_id</text>
<text x="70" y="156" style="font-family:sans-serif;font-size:12px;fill:#263238">kind: DIRECTORY/PARTNER</text>
<text x="70" y="172" style="font-family:sans-serif;font-size:12px;fill:#263238">dashboard_enabled</text>
<text x="70" y="188" style="font-family:sans-serif;font-size:12px;fill:#263238">location (Point)</text>
<text x="70" y="204" style="font-family:sans-serif;font-size:12px;fill:#263238">contact / operating_hours</text>
<rect x="470" y="80" width="265" height="128" style="fill:#eceff1;stroke:#607d8b;stroke-width:1.5;rx:6;ry:6" />
<text x="480" y="100" style="font-family:sans-serif;font-size:14px;font-weight:bold;fill:#0d47a1">center_memberships</text>
<text x="480" y="120" style="font-family:sans-serif;font-size:12px;font-weight:bold;fill:#bf360c">PK membership_id</text>
<text x="480" y="136" style="font-family:sans-serif;font-size:12px;font-style:italic;fill:#3949ab">FK center_id</text>
<text x="480" y="152" style="font-family:sans-serif;font-size:12px;font-style:italic;fill:#3949ab">FK user_id</text>
<text x="480" y="168" style="font-family:sans-serif;font-size:12px;fill:#263238">role / status</text>
<rect x="470" y="410" width="265" height="175" style="fill:#e3f2fd;stroke:#1e88e5;stroke-width:1.8;rx:6;ry:6" />
<text x="480" y="430" style="font-family:sans-serif;font-size:14px;font-weight:bold;fill:#0d47a1">found_items</text>
<text x="480" y="450" style="font-family:sans-serif;font-size:12px;font-weight:bold;fill:#bf360c">PK item_id</text>
<text x="480" y="466" style="font-family:sans-serif;font-size:12px;font-style:italic;fill:#3949ab">FK finder_id</text>
<text x="480" y="482" style="font-family:sans-serif;font-size:12px;font-style:italic;fill:#3949ab">FK holding_center_id (nullable)</text>
<text x="480" y="498" style="font-family:sans-serif;font-size:12px;fill:#263238">category / found_at</text>
<text x="480" y="514" style="font-family:sans-serif;font-size:12px;fill:#263238">found_location (Point)</text>
<text x="480" y="530" style="font-family:sans-serif;font-size:12px;fill:#263238">status</text>
<rect x="470" y="890" width="265" height="160" style="fill:#e3f2fd;stroke:#1e88e5;stroke-width:1.8;rx:6;ry:6" />
<text x="480" y="910" style="font-family:sans-serif;font-size:14px;font-weight:bold;fill:#0d47a1">lost_reports</text>
<text x="480" y="930" style="font-family:sans-serif;font-size:12px;font-weight:bold;fill:#bf360c">PK report_id</text>
<text x="480" y="946" style="font-family:sans-serif;font-size:12px;font-style:italic;fill:#3949ab">FK reporter_id</text>
<text x="480" y="962" style="font-family:sans-serif;font-size:12px;fill:#263238">category / lost_time_range</text>
<text x="480" y="978" style="font-family:sans-serif;font-size:12px;fill:#263238">description</text>
<text x="480" y="994" style="font-family:sans-serif;font-size:12px;fill:#263238">status / candidate_version</text>
<rect x="920" y="285" width="260" height="112" style="fill:#e8f5e9;stroke:#43a047;stroke-width:1.8;rx:6;ry:6" />
<text x="930" y="305" style="font-family:sans-serif;font-size:14px;font-weight:bold;fill:#0d47a1">found_item_images</text>
<text x="930" y="325" style="font-family:sans-serif;font-size:12px;font-weight:bold;fill:#bf360c">PK image_id</text>
<text x="930" y="341" style="font-family:sans-serif;font-size:12px;font-style:italic;fill:#3949ab">FK item_id</text>
<text x="930" y="357" style="font-family:sans-serif;font-size:12px;fill:#263238">storage_key / visibility</text>
<rect x="920" y="500" width="260" height="128" style="fill:#e8f5e9;stroke:#43a047;stroke-width:1.8;rx:6;ry:6" />
<text x="930" y="520" style="font-family:sans-serif;font-size:14px;font-weight:bold;fill:#0d47a1">item_features</text>
<text x="930" y="540" style="font-family:sans-serif;font-size:12px;font-weight:bold;fill:#bf360c">PK feature_id</text>
<text x="930" y="556" style="font-family:sans-serif;font-size:12px;font-style:italic;fill:#3949ab">FK item_id</text>
<text x="930" y="572" style="font-family:sans-serif;font-size:12px;fill:#263238">kind / encrypted_value</text>
<text x="930" y="588" style="font-family:sans-serif;font-size:12px;fill:#263238">visibility / source</text>
<rect x="920" y="710" width="260" height="128" style="fill:#e8f5e9;stroke:#43a047;stroke-width:1.8;rx:6;ry:6" />
<text x="930" y="730" style="font-family:sans-serif;font-size:14px;font-weight:bold;fill:#0d47a1">handover_records</text>
<text x="930" y="750" style="font-family:sans-serif;font-size:12px;font-weight:bold;fill:#bf360c">PK handover_id</text>
<text x="930" y="766" style="font-family:sans-serif;font-size:12px;font-style:italic;fill:#3949ab">FK item_id / center_id</text>
<text x="930" y="782" style="font-family:sans-serif;font-size:12px;fill:#263238">status / accepted_at</text>
<text x="930" y="798" style="font-family:sans-serif;font-size:12px;fill:#263238">accepted_by</text>
<rect x="920" y="1020" width="260" height="112" style="fill:#e8f5e9;stroke:#43a047;stroke-width:1.8;rx:6;ry:6" />
<text x="930" y="1040" style="font-family:sans-serif;font-size:14px;font-weight:bold;fill:#0d47a1">report_waypoints</text>
<text x="930" y="1060" style="font-family:sans-serif;font-size:12px;font-weight:bold;fill:#bf360c">PK waypoint_id</text>
<text x="930" y="1076" style="font-family:sans-serif;font-size:12px;font-style:italic;fill:#3949ab">FK report_id</text>
<text x="930" y="1092" style="font-family:sans-serif;font-size:12px;fill:#263238">ordinal / place_name / location</text>
<rect x="1370" y="670" width="275" height="145" style="fill:#eceff1;stroke:#607d8b;stroke-width:1.5;rx:6;ry:6" />
<text x="1380" y="690" style="font-family:sans-serif;font-size:14px;font-weight:bold;fill:#0d47a1">match_candidates</text>
<text x="1380" y="710" style="font-family:sans-serif;font-size:12px;font-weight:bold;fill:#bf360c">PK candidate_id</text>
<text x="1380" y="726" style="font-family:sans-serif;font-size:12px;font-style:italic;fill:#3949ab">FK report_id / item_id</text>
<text x="1380" y="742" style="font-family:sans-serif;font-size:12px;fill:#263238">score / score_breakdown</text>
<text x="1380" y="758" style="font-family:sans-serif;font-size:12px;fill:#263238">status</text>
<rect x="1810" y="900" width="280" height="112" style="fill:#e8f5e9;stroke:#43a047;stroke-width:1.8;rx:6;ry:6" />
<text x="1820" y="920" style="font-family:sans-serif;font-size:14px;font-weight:bold;fill:#0d47a1">candidate_accesses</text>
<text x="1820" y="940" style="font-family:sans-serif;font-size:12px;font-weight:bold;fill:#bf360c">PK access_id</text>
<text x="1820" y="956" style="font-family:sans-serif;font-size:12px;font-style:italic;fill:#3949ab">FK report_id / user_id</text>
<text x="1820" y="972" style="font-family:sans-serif;font-size:12px;font-style:italic;fill:#3949ab">FK point_transaction_id</text>
<text x="1820" y="988" style="font-family:sans-serif;font-size:12px;fill:#263238">scope / unlocked_at</text>
<rect x="1810" y="610" width="280" height="128" style="fill:#e8f5e9;stroke:#43a047;stroke-width:1.8;rx:6;ry:6" />
<text x="1820" y="630" style="font-family:sans-serif;font-size:14px;font-weight:bold;fill:#0d47a1">return_records</text>
<text x="1820" y="650" style="font-family:sans-serif;font-size:12px;font-weight:bold;fill:#bf360c">PK return_id</text>
<text x="1820" y="666" style="font-family:sans-serif;font-size:12px;font-style:italic;fill:#3949ab">FK item_id / report_id / center_id</text>
<text x="1820" y="682" style="font-family:sans-serif;font-size:12px;fill:#263238">returned_at / confirmed_by</text>
<text x="1820" y="698" style="font-family:sans-serif;font-size:12px;fill:#263238">reward_status</text>
<rect x="2170" y="810" width="245" height="145" style="fill:#e8f5e9;stroke:#43a047;stroke-width:1.8;rx:6;ry:6" />
<text x="2180" y="830" style="font-family:sans-serif;font-size:14px;font-weight:bold;fill:#0d47a1">point_ledger</text>
<text x="2180" y="850" style="font-family:sans-serif;font-size:12px;font-weight:bold;fill:#bf360c">PK transaction_id</text>
<text x="2180" y="866" style="font-family:sans-serif;font-size:12px;font-style:italic;fill:#3949ab">FK user_id</text>
<text x="2180" y="882" style="font-family:sans-serif;font-size:12px;fill:#263238">type / amount</text>
<text x="2180" y="898" style="font-family:sans-serif;font-size:12px;fill:#263238">reference / idempotency_key</text>
<text x="2180" y="914" style="font-family:sans-serif;font-size:12px;fill:#263238">created_at</text>
<line x1="310" y1="180.0" x2="470" y2="144.0" style="stroke:#546e7a;stroke-width:1.5" />
<path d="M 315 180.0 l 10 -10 m 0 10 l 10 0 m 0 10 l -10 -10" style="stroke:#546e7a;stroke-width:1.5;fill:none" />
<line x1="465" y1="140.0" x2="465" y2="148.0" style="stroke:#546e7a;stroke-width:1.5" />
<line x1="310" y1="752.5" x2="470" y2="144.0" style="stroke:#546e7a;stroke-width:1.5" />
<path d="M 315 752.5 l 10 -10 m 0 10 l 10 0 m 0 10 l -10 -10" style="stroke:#546e7a;stroke-width:1.5;fill:none" />
<line x1="465" y1="140.0" x2="465" y2="148.0" style="stroke:#546e7a;stroke-width:1.5" />
<line x1="310" y1="752.5" x2="470" y2="497.5" style="stroke:#546e7a;stroke-width:1.5" />
<path d="M 315 752.5 l 10 -10 m 0 10 l 10 0 m 0 10 l -10 -10" style="stroke:#546e7a;stroke-width:1.5;fill:none" />
<line x1="465" y1="493.5" x2="465" y2="501.5" style="stroke:#546e7a;stroke-width:1.5" />
<line x1="310" y1="180.0" x2="470" y2="497.5" style="stroke:#546e7a;stroke-width:1.5" />
<path d="M 315 180.0 l 10 -10 m 0 10 l 10 0 m 0 10 l -10 -10" style="stroke:#546e7a;stroke-width:1.5;fill:none" />
<line x1="465" y1="493.5" x2="465" y2="501.5" style="stroke:#546e7a;stroke-width:1.5" />
<line x1="310" y1="752.5" x2="470" y2="970.0" style="stroke:#546e7a;stroke-width:1.5" />
<path d="M 315 752.5 l 10 -10 m 0 10 l 10 0 m 0 10 l -10 -10" style="stroke:#546e7a;stroke-width:1.5;fill:none" />
<line x1="465" y1="966.0" x2="465" y2="974.0" style="stroke:#546e7a;stroke-width:1.5" />
<line x1="735" y1="497.5" x2="920" y2="341.0" style="stroke:#546e7a;stroke-width:1.5" />
<path d="M 740 497.5 l 10 -10 m 0 10 l 10 0 m 0 10 l -10 -10" style="stroke:#546e7a;stroke-width:1.5;fill:none" />
<line x1="915" y1="337.0" x2="915" y2="345.0" style="stroke:#546e7a;stroke-width:1.5" />
<line x1="735" y1="497.5" x2="920" y2="564.0" style="stroke:#546e7a;stroke-width:1.5" />
<path d="M 740 497.5 l 10 -10 m 0 10 l 10 0 m 0 10 l -10 -10" style="stroke:#546e7a;stroke-width:1.5;fill:none" />
<line x1="915" y1="560.0" x2="915" y2="568.0" style="stroke:#546e7a;stroke-width:1.5" />
<line x1="735" y1="497.5" x2="920" y2="774.0" style="stroke:#546e7a;stroke-width:1.5" />
<path d="M 740 497.5 l 10 -10 m 0 10 l 10 0 m 0 10 l -10 -10" style="stroke:#546e7a;stroke-width:1.5;fill:none" />
<line x1="915" y1="770.0" x2="915" y2="778.0" style="stroke:#546e7a;stroke-width:1.5" />
<line x1="735" y1="970.0" x2="920" y2="1076.0" style="stroke:#546e7a;stroke-width:1.5" />
<path d="M 740 970.0 l 10 -10 m 0 10 l 10 0 m 0 10 l -10 -10" style="stroke:#546e7a;stroke-width:1.5;fill:none" />
<line x1="915" y1="1072.0" x2="915" y2="1080.0" style="stroke:#546e7a;stroke-width:1.5" />
<line x1="735" y1="497.5" x2="1370" y2="742.5" style="stroke:#546e7a;stroke-width:1.5" />
<path d="M 740 497.5 l 10 -10 m 0 10 l 10 0 m 0 10 l -10 -10" style="stroke:#546e7a;stroke-width:1.5;fill:none" />
<line x1="1365" y1="738.5" x2="1365" y2="746.5" style="stroke:#546e7a;stroke-width:1.5" />
<line x1="735" y1="970.0" x2="1370" y2="742.5" style="stroke:#546e7a;stroke-width:1.5" />
<path d="M 740 970.0 l 10 -10 m 0 10 l 10 0 m 0 10 l -10 -10" style="stroke:#546e7a;stroke-width:1.5;fill:none" />
<line x1="1365" y1="738.5" x2="1365" y2="746.5" style="stroke:#546e7a;stroke-width:1.5" />
<line x1="735" y1="970.0" x2="1810" y2="956.0" style="stroke:#546e7a;stroke-width:1.5" />
<path d="M 740 970.0 l 10 -10 m 0 10 l 10 0 m 0 10 l -10 -10" style="stroke:#546e7a;stroke-width:1.5;fill:none" />
<line x1="1805" y1="952.0" x2="1805" y2="960.0" style="stroke:#546e7a;stroke-width:1.5" />
<line x1="2090" y1="674.0" x2="2170" y2="882.5" style="stroke:#546e7a;stroke-width:1.5" />
<line x1="2095" y1="670.0" x2="2095" y2="678.0" style="stroke:#546e7a;stroke-width:1.5" />
<line x1="2165" y1="878.5" x2="2165" y2="886.5" style="stroke:#546e7a;stroke-width:1.5" />
<line x1="2090" y1="956.0" x2="2170" y2="882.5" style="stroke:#546e7a;stroke-width:1.5" />
<line x1="2095" y1="952.0" x2="2095" y2="960.0" style="stroke:#546e7a;stroke-width:1.5" />
<line x1="2165" y1="878.5" x2="2165" y2="886.5" style="stroke:#546e7a;stroke-width:1.5" />
</svg>
